<?xml version="1.0" standalone="no"?>
<!DOCTYPE svg PUBLIC "-//W3C//DTD SVG 20010904//EN"
 "http://www.w3.org/TR/2001/REC-SVG-20010904/DTD/svg10.dtd">
<svg version="1.0" xmlns="http://www.w3.org/2000/svg"
 width="40px" height="40px" viewBox="0 0 1000.000000 1000.000000"
 preserveAspectRatio="xMidYMid meet">

<g transform="translate(0.000000,1000.000000) scale(0.100000,-0.100000)"
fill="#000000" stroke="none">
<path d="M5320 8026 c-89 -19 -209 -73 -300 -134 -139 -93 -226 -216 -297
-417 l-28 -80 -3 -902 -3 -903 306 0 305 0 0 980 0 980 168 -2 167 -3 5 -980
5 -979 45 -9 c202 -37 324 -93 434 -201 40 -39 85 -87 100 -106 l26 -35 -3
1070 c-2 1061 -3 1071 -24 1146 -43 153 -104 257 -214 367 -96 97 -219 165
-363 202 -90 23 -237 26 -326 6z"/>
<path d="M3752 6688 c4 -1416 -3 -1299 79 -1466 71 -145 217 -277 386 -348
l68 -29 555 -5 c437 -5 562 -9 590 -20 97 -38 169 -118 195 -216 11 -44 15
-115 15 -296 l0 -238 306 0 305 0 -3 373 c-4 351 -5 377 -27 452 -85 298 -239
453 -511 511 -51 11 -179 14 -581 14 -430 0 -524 2 -566 15 -68 20 -144 89
-180 163 l-28 57 -3 1148 -2 1147 -300 0 -300 0 2 -1262z"/>
<path d="M3750 4553 l0 -483 300 0 300 0 0 303 0 302 -66 13 c-84 16 -201 61
-283 109 -64 38 -189 152 -229 208 l-21 30 -1 -482z"/>
<path d="M3800 3530 c0 -230 5 -259 55 -298 25 -20 40 -22 151 -22 l124 0 0
-45 0 -45 45 0 45 0 0 57 c0 53 -3 59 -40 94 l-40 38 0 216 0 215 -45 0 -45 0
0 -220 0 -220 -75 0 -75 0 0 220 0 220 -50 0 -50 0 0 -210z"/>
<path d="M4334 3730 c-62 -25 -91 -108 -59 -170 23 -45 51 -55 165 -60 100 -5
105 -6 108 -27 3 -23 1 -23 -93 -23 -110 0 -151 -14 -178 -59 -32 -55 -15
-130 37 -165 21 -13 55 -16 211 -16 l185 0 0 45 0 45 -177 2 c-174 3 -178 4
-181 25 -3 20 1 21 108 25 l112 3 34 37 c28 32 34 45 34 84 0 39 -5 51 -34 80
l-34 34 -111 0 -111 0 0 25 0 25 180 0 180 0 0 50 0 50 -177 -1 c-98 0 -187
-4 -199 -9z"/>
<path d="M4800 3475 l0 -265 50 0 50 0 0 70 0 70 95 0 95 0 0 -70 0 -70 50 0
50 0 0 265 0 265 -50 0 -50 0 0 -145 0 -145 -95 0 -95 0 0 145 0 145 -50 0
-50 0 0 -265z"/>
<path d="M5280 3690 l0 -50 75 0 75 0 0 -215 0 -215 50 0 51 0 -1 213 -2 212
71 3 71 3 0 49 0 50 -195 0 -195 0 0 -50z"/>
<path d="M5835 3726 c-17 -7 -40 -26 -50 -42 -18 -26 -20 -50 -23 -251 l-3
-223 50 0 51 0 0 75 0 75 105 0 c161 0 185 24 185 187 0 114 -17 154 -75 179
-44 18 -199 18 -240 0z m215 -181 l0 -95 -95 0 -95 0 0 95 0 95 95 0 95 0 0
-95z"/>
<path d="M2733 3060 c-13 -5 -32 -24 -43 -42 -18 -30 -20 -51 -20 -255 l0
-223 45 0 45 0 2 218 c3 214 3 217 25 220 20 3 21 -1 25 -108 l3 -112 37 -34
c51 -46 112 -48 160 -5 33 29 33 30 38 143 5 108 6 113 27 116 l23 3 2 -218 3
-218 48 -3 48 -3 -3 231 -3 232 -37 34 c-43 38 -88 45 -138 19 -48 -25 -60
-61 -60 -175 l0 -100 -25 0 c-25 0 -25 0 -25 96 0 109 -14 150 -59 177 -31 18
-82 21 -118 7z"/>
<path d="M3345 3048 c-47 -37 -55 -72 -55 -245 0 -183 10 -216 73 -247 52 -25
97 -15 136 30 l31 35 0 187 c0 205 -3 218 -60 247 -42 22 -93 19 -125 -7z m95
-238 l0 -170 -25 0 -25 0 0 170 0 170 25 0 25 0 0 -170z"/>
<path d="M3708 3054 c-51 -27 -58 -56 -58 -244 l0 -170 -25 0 c-23 0 -25 -3
-25 -51 l0 -51 36 7 c95 17 107 46 112 263 l4 172 69 0 69 0 0 -220 0 -220 50
0 50 0 0 215 c0 236 -6 267 -60 299 -37 21 -183 22 -222 0z"/>
<path d="M4135 3048 c-47 -37 -55 -72 -55 -243 0 -112 4 -165 14 -190 37 -87
161 -97 209 -16 24 41 25 385 1 419 -37 53 -121 68 -169 30z m93 -240 l2 -168
-25 0 -25 0 0 171 0 170 23 -3 c22 -3 22 -5 25 -170z"/>
<path d="M4536 3049 c-50 -40 -56 -64 -56 -244 l0 -165 -50 0 -50 0 0 -50 0
-50 265 0 265 0 0 50 0 50 -45 0 -45 0 0 215 0 215 -129 0 c-115 0 -131 -2
-155 -21z m184 -239 l0 -170 -70 0 -70 0 0 170 0 170 70 0 70 0 0 -170z"/>
<path d="M5018 3054 c-77 -41 -74 -156 5 -204 26 -16 50 -20 130 -20 97 0 97
0 97 -25 l0 -25 -100 0 c-114 0 -150 -12 -175 -60 -20 -40 -19 -79 5 -118 33
-54 67 -62 260 -62 l170 0 0 50 0 50 -175 0 -175 0 0 25 0 25 104 0 c91 0 107
3 131 22 52 40 63 110 28 165 -25 38 -73 53 -172 53 -90 0 -91 0 -91 25 l0 25
175 0 175 0 0 45 0 45 -182 0 c-142 -1 -189 -4 -210 -16z"/>
<path d="M5510 2990 c0 -75 2 -81 31 -115 22 -25 43 -37 70 -41 33 -6 39 -10
39 -30 0 -21 -5 -24 -36 -24 -28 0 -44 -8 -70 -34 -33 -33 -34 -36 -34 -120
l0 -86 45 0 45 0 0 75 c0 73 1 75 25 75 24 0 25 -2 25 -75 l0 -75 50 0 50 0 0
75 c0 73 1 75 25 75 24 0 25 -2 25 -75 l0 -75 45 0 45 0 0 75 c0 110 -37 165
-110 165 -25 0 -30 4 -30 24 0 20 6 24 39 30 27 4 48 16 70 41 29 34 31 40 31
115 l0 80 -45 0 -45 0 0 -70 c0 -68 -1 -70 -25 -70 -24 0 -25 2 -25 70 l0 70
-50 0 -50 0 0 -70 c0 -68 -1 -70 -25 -70 -24 0 -25 2 -25 70 l0 70 -45 0 -45
0 0 -80z"/>
<path d="M5990 2805 l0 -265 45 0 45 0 0 75 0 75 100 0 100 0 0 -75 0 -75 45
0 45 0 0 265 0 265 -45 0 -44 0 -3 -142 -3 -143 -97 -3 -98 -3 0 146 0 145
-45 0 -45 0 0 -265z"/>
<path d="M6470 2805 l0 -265 68 0 c130 0 172 47 172 193 0 132 -28 180 -112
194 l-38 6 0 68 0 69 -45 0 -45 0 0 -265z m140 -70 c0 -95 0 -95 -25 -95 -25
0 -25 0 -25 95 0 95 0 95 25 95 25 0 25 0 25 -95z"/>
<path d="M6750 2805 l0 -265 50 0 50 0 0 265 0 265 -50 0 -50 0 0 -265z"/>
<path d="M6950 2994 c0 -54 5 -84 17 -105 18 -30 67 -59 102 -59 16 0 21 -6
21 -25 0 -22 -4 -25 -36 -25 -28 0 -44 -8 -70 -34 -33 -33 -34 -36 -34 -120
l0 -86 45 0 45 0 0 75 0 75 100 0 100 0 0 -75 0 -75 45 0 45 0 0 75 c0 48 -6
87 -15 105 -17 33 -61 60 -100 60 -20 0 -25 5 -25 24 0 20 6 24 39 30 27 4 48
16 70 41 29 34 31 40 31 115 l0 80 -45 0 -45 0 0 -70 0 -70 -100 0 -100 0 0
70 0 70 -45 0 -45 0 0 -76z"/>
<path d="M2890 2182 c0 -249 2 -257 60 -287 42 -22 93 -19 125 7 47 37 55 72
55 248 l0 160 25 0 25 0 0 -215 0 -215 45 0 45 0 0 224 c0 211 -1 225 -21 250
-57 73 -153 70 -199 -7 -18 -28 -20 -51 -20 -205 l0 -173 -22 3 c-23 3 -23 3
-26 221 l-2 217 -45 0 -45 0 0 -228z"/>
<path d="M3370 2145 l0 -265 45 0 45 0 0 70 0 70 100 0 100 0 0 -70 0 -70 45
0 45 0 0 265 0 265 -45 0 -45 0 0 -145 0 -145 -100 0 -100 0 0 145 0 145 -45
0 -45 0 0 -265z"/>
<path d="M3850 2190 c0 -178 3 -227 15 -250 30 -58 119 -79 169 -39 50 40 56
64 56 244 l0 165 25 0 25 0 0 -215 0 -215 45 0 45 0 0 226 0 226 -33 33 c-42
42 -77 51 -124 34 -71 -27 -78 -48 -81 -250 -3 -179 -3 -180 -25 -177 -22 3
-22 5 -25 221 l-2 217 -45 0 -45 0 0 -220z"/>
<path d="M4330 2190 c0 -306 3 -310 200 -310 l120 0 0 -45 0 -45 51 0 51 0 -4
57 c-4 49 -9 60 -42 90 l-37 35 1 219 1 219 -51 0 -50 0 0 -220 0 -220 -70 0
-70 0 0 220 0 220 -50 0 -50 0 0 -220z"/>
<path d="M4792 2179 l3 -231 37 -34 c30 -27 46 -34 78 -34 22 0 52 7 66 16 48
32 54 59 54 244 l0 170 25 0 25 0 0 -215 0 -215 50 0 50 0 0 213 c0 243 -6
268 -73 301 -49 24 -94 15 -133 -25 l-29 -30 -5 -182 c-5 -179 -5 -182 -27
-185 l-23 -3 0 220 0 221 -51 0 -50 0 3 -231z"/>
<path d="M5270 2360 l0 -50 145 0 145 0 0 -25 c0 -25 0 -25 -97 -25 -158 0
-193 -36 -193 -195 0 -94 12 -129 56 -164 24 -19 40 -21 180 -21 l154 0 0 218
c0 200 -2 220 -20 250 -32 52 -69 62 -230 62 l-140 0 0 -50z m292 -291 c2 -50
1 -93 -1 -95 -2 -2 -46 -4 -98 -4 l-93 0 0 95 0 95 94 0 95 0 3 -91z"/>
<path d="M5720 2360 l0 -50 75 0 75 0 0 -215 0 -215 45 0 45 0 0 215 0 215 75
0 75 0 0 50 0 50 -195 0 -195 0 0 -50z"/>
<path d="M6170 2190 c0 -243 5 -266 60 -295 59 -30 125 -14 161 41 17 26 19
48 19 202 l0 172 25 0 25 0 0 -215 0 -215 50 0 50 0 0 193 c0 232 -4 260 -42
297 -38 38 -85 47 -131 25 -66 -31 -72 -49 -75 -247 -3 -168 -5 -178 -23 -178
-18 0 -19 10 -19 220 l0 220 -50 0 -50 0 0 -220z"/>
<path d="M6724 2400 c-11 -4 -33 -22 -47 -40 l-27 -32 0 -187 c0 -265 -4 -261
269 -261 178 0 180 0 210 26 17 14 36 43 42 64 10 32 9 44 -7 76 -29 58 -63
72 -175 73 -53 1 -98 4 -101 7 -14 14 6 44 29 44 89 0 146 115 92 184 -35 45
-69 56 -171 55 -51 0 -102 -4 -114 -9z m216 -115 c0 -21 -5 -25 -30 -25 -72 0
-128 -66 -117 -138 13 -75 63 -102 192 -102 95 0 95 0 95 -25 l0 -25 -167 2
-168 3 -3 168 -2 167 100 0 100 0 0 -25z"/>
</g>
</svg>
