<?xml version="1.0" standalone="no"?>
<!DOCTYPE svg PUBLIC "-//W3C//DTD SVG 20010904//EN"
 "http://www.w3.org/TR/2001/REC-SVG-20010904/DTD/svg10.dtd">
<svg version="1.0" xmlns="http://www.w3.org/2000/svg"
 width="40px" height="40px" viewBox="0 0 2500.000000 2500.000000"
 preserveAspectRatio="xMidYMid meet">

<g transform="translate(0.000000,2500.000000) scale(0.100000,-0.100000)"
fill="#000000" stroke="none">
<path d="M17287 20609 c7 -7 15 -10 18 -7 3 3 -2 9 -12 12 -14 6 -15 5 -6 -5z"/>
<path d="M17039 20418 c-5 -18 -6 -38 -1 -34 7 8 12 36 6 36 -2 0 -4 -1 -5 -2z"/>
<path d="M18040 20366 c0 -2 8 -10 18 -17 15 -13 16 -12 3 4 -13 16 -21 21
-21 13z"/>
<path d="M17020 20311 c0 -6 4 -13 10 -16 6 -3 7 1 4 9 -7 18 -14 21 -14 7z"/>
<path d="M17583 20095 c0 -8 4 -12 9 -9 5 3 6 10 3 15 -9 13 -12 11 -12 -6z"/>
<path d="M16616 19973 c-6 -14 -5 -15 5 -6 7 7 10 15 7 18 -3 3 -9 -2 -12 -12z"/>
<path d="M17847 19926 c-3 -8 2 -20 11 -28 15 -11 15 -11 5 3 -10 12 -10 18
-1 27 8 8 9 12 1 12 -6 0 -13 -6 -16 -14z"/>
<path d="M18284 19932 c4 -3 14 -7 22 -8 9 -1 13 0 10 4 -4 3 -14 7 -22 8 -9
1 -13 0 -10 -4z"/>
<path d="M16844 19898 l-19 -23 23 19 c21 18 27 26 19 26 -2 0 -12 -10 -23
-22z"/>
<path d="M19109 19756 c-63 -61 -195 -188 -294 -281 -99 -94 -274 -260 -390
-370 -115 -110 -296 -281 -400 -380 -105 -98 -242 -229 -305 -290 -63 -61
-191 -182 -285 -270 -293 -275 -357 -336 -470 -445 -60 -59 -202 -194 -315
-300 -113 -107 -245 -233 -295 -280 -325 -310 -613 -584 -1015 -965 -168 -159
-390 -370 -495 -469 -104 -100 -289 -275 -410 -391 -375 -357 -781 -742 -995
-945 -113 -107 -329 -311 -480 -454 -151 -143 -321 -306 -377 -361 l-103 -101
0 -77 c0 -104 -16 -132 -137 -239 -54 -48 -111 -99 -128 -114 -136 -124 -267
-242 -345 -310 -25 -21 -70 -62 -100 -90 -30 -28 -75 -69 -100 -90 -25 -21
-74 -66 -110 -100 -36 -34 -85 -79 -110 -100 -25 -21 -47 -41 -50 -44 -6 -6
-301 -270 -350 -314 -79 -70 -229 -204 -285 -256 -70 -63 -116 -105 -235 -210
-47 -41 -87 -77 -90 -80 -3 -3 -43 -39 -90 -80 -47 -41 -97 -86 -111 -100 -14
-14 -45 -43 -70 -64 -24 -22 -87 -79 -139 -126 -224 -205 -327 -294 -358 -308
-39 -19 -26 -25 -199 94 -390 268 -411 283 -431 302 -18 16 -32 12 -46 -14 -6
-10 -31 -53 -57 -94 -25 -41 -65 -106 -89 -145 -24 -38 -63 -100 -87 -137 -23
-37 -43 -70 -43 -73 0 -4 -17 -32 -38 -63 -21 -31 -92 -147 -157 -257 -65
-110 -122 -201 -127 -203 -4 -2 -8 -8 -8 -13 0 -8 -57 -102 -135 -224 -53 -83
-177 -282 -265 -425 -46 -74 -98 -159 -116 -187 -19 -29 -34 -55 -34 -58 0
-14 -109 -187 -144 -227 -46 -54 -62 -58 -103 -25 -15 13 -93 70 -172 126
-153 110 -339 244 -408 295 -23 17 -82 59 -130 94 -48 35 -233 168 -410 296
-177 129 -384 278 -460 333 -76 54 -189 136 -250 181 -191 139 -333 242 -443
320 -58 42 -174 127 -258 190 -96 71 -158 112 -168 108 -13 -5 -14 -168 -9
-1448 14 -3620 14 -3701 27 -3714 7 -6 101 -28 208 -49 107 -20 317 -62 465
-92 149 -30 293 -58 320 -63 110 -20 268 -51 430 -84 94 -19 267 -53 385 -76
118 -22 233 -45 255 -50 66 -15 222 -47 365 -75 74 -14 152 -31 173 -36 72
-19 66 -142 71 1450 3 1270 13 1902 32 2038 9 74 36 84 89 36 11 -10 52 -44
90 -75 39 -31 82 -67 97 -80 14 -13 70 -59 123 -103 96 -79 313 -259 410 -339
27 -22 81 -68 120 -101 38 -33 106 -89 150 -125 44 -35 82 -67 85 -70 3 -3 52
-43 110 -90 58 -47 114 -93 125 -103 11 -10 61 -52 112 -93 50 -41 98 -80 105
-87 7 -6 38 -32 68 -57 30 -25 66 -55 80 -67 126 -109 208 -172 223 -173 9 0
54 24 100 53 45 30 134 87 197 127 63 40 160 102 215 137 55 35 141 89 190
120 50 31 140 88 200 126 149 95 245 155 338 213 43 27 127 81 188 119 183
117 476 300 619 386 74 45 182 111 240 146 58 35 114 70 125 76 11 7 49 30 85
53 36 22 90 55 120 74 30 18 85 53 121 77 37 24 76 43 87 43 49 0 47 100 50
-1934 3 -1419 7 -1903 15 -1909 7 -4 37 -5 67 -2 73 7 1295 109 1675 140 165
13 595 49 955 79 360 31 765 64 900 75 135 11 434 36 665 56 231 19 528 44
660 55 287 24 545 46 715 60 69 6 179 15 245 20 118 9 214 17 525 45 85 8 195
17 243 21 70 5 90 10 97 25 7 11 10 1582 10 4388 0 4237 -1 4371 -18 4371 -11
0 -35 -17 -54 -37 -49 -52 -300 -296 -373 -362 -97 -89 -238 -223 -435 -415
-102 -100 -275 -267 -385 -371 -110 -104 -234 -223 -276 -265 -41 -41 -154
-149 -250 -240 -213 -200 -363 -345 -624 -600 -110 -107 -279 -269 -375 -360
-96 -90 -254 -242 -351 -337 -173 -170 -208 -195 -223 -157 -3 9 -6 66 -6 129
l0 112 253 244 c264 255 991 951 1226 1173 133 127 309 294 781 746 129 124
377 360 550 525 173 165 376 359 450 432 l135 132 -13 45 c-8 31 -12 137 -12
326 0 248 -2 280 -16 280 -8 0 -93 -76 -187 -168 -95 -93 -237 -229 -317 -303
-79 -74 -248 -235 -375 -359 -127 -124 -280 -272 -340 -330 -61 -58 -229 -220
-375 -361 -146 -141 -292 -280 -325 -310 -75 -67 -234 -219 -480 -460 -104
-102 -295 -286 -423 -410 -128 -123 -286 -275 -350 -337 -138 -133 -145 -137
-166 -116 -13 12 -16 39 -16 132 l0 117 108 105 c59 58 249 240 422 405 173
165 369 352 435 415 192 185 542 519 780 745 121 115 274 261 340 325 66 64
228 220 360 346 132 126 335 319 450 429 368 351 460 439 479 463 16 20 17 29
7 67 -7 27 -11 151 -11 319 0 228 -2 276 -14 276 -7 0 -94 -78 -192 -173 -99
-95 -244 -234 -324 -308 -80 -73 -244 -231 -365 -349 -121 -119 -269 -263
-330 -320 -60 -57 -191 -183 -290 -280 -99 -96 -268 -258 -375 -360 -223 -211
-302 -287 -415 -396 -44 -42 -246 -237 -449 -433 -552 -533 -570 -550 -583
-551 -24 0 -33 40 -33 150 l0 112 63 63 c34 34 127 124 207 201 80 76 197 188
260 249 63 61 205 196 315 300 110 104 265 252 345 330 80 77 237 228 350 335
209 199 420 401 985 941 176 168 435 414 575 548 301 286 306 292 288 323 -10
17 -14 102 -18 318 -4 212 -8 295 -16 295 -7 0 -108 -92 -225 -205 -117 -113
-220 -212 -229 -220 -38 -34 -219 -208 -420 -405 -119 -115 -294 -284 -390
-374 -96 -91 -247 -235 -335 -321 -88 -86 -248 -239 -355 -340 -107 -101 -292
-278 -410 -394 -119 -116 -245 -237 -280 -270 -36 -32 -197 -187 -359 -345
-162 -157 -303 -288 -314 -289 -31 -6 -37 15 -37 138 l0 115 138 135 c212 208
420 409 612 589 96 91 229 217 295 280 235 227 363 350 565 541 113 107 261
249 330 315 69 66 175 168 235 225 61 58 166 159 235 225 142 137 515 493 665
635 303 288 317 303 309 335 -3 17 -9 161 -13 320 -4 204 -9 290 -17 290 -12
0 -353 -323 -909 -860 -171 -165 -349 -336 -395 -380 -47 -43 -173 -165 -280
-270 -107 -104 -272 -262 -365 -350 -94 -88 -246 -234 -340 -325 -93 -91 -267
-258 -385 -370 -282 -269 -580 -559 -603 -587 -23 -28 -53 -30 -67 -4 -5 11
-10 69 -10 130 l0 111 147 142 c298 289 442 427 623 598 102 96 297 282 435
415 137 132 300 287 360 345 61 58 209 199 330 315 121 115 265 253 320 305
263 250 552 526 665 635 69 67 210 201 313 300 104 98 193 187 198 197 7 12 5
27 -5 47 -13 24 -16 110 -18 535 -2 347 -6 507 -14 510 -6 2 -62 -46 -125
-108z m-10046 -8676 c28 -24 105 -78 142 -100 22 -14 49 -33 60 -43 11 -10 40
-30 65 -44 24 -15 53 -35 64 -45 11 -10 25 -18 32 -18 7 0 14 -3 16 -7 5 -12
113 -83 126 -83 7 0 12 -9 12 -20 0 -11 -3 -20 -8 -20 -4 0 -19 -10 -32 -22
-14 -13 -46 -41 -70 -63 -110 -97 -215 -192 -244 -220 -17 -16 -47 -43 -66
-59 -19 -15 -60 -51 -90 -80 -30 -28 -71 -64 -90 -80 -19 -15 -55 -47 -80 -70
-25 -22 -79 -70 -120 -106 -41 -36 -82 -72 -90 -80 -24 -22 -179 -161 -209
-188 -14 -12 -40 -35 -56 -50 -165 -148 -205 -184 -230 -203 -17 -13 -57 -49
-90 -80 -66 -62 -211 -191 -257 -227 l-28 -24 12 29 c13 28 21 41 46 68 6 7
12 18 12 23 0 5 9 17 20 27 11 10 20 22 20 26 0 4 13 27 29 51 16 24 38 61 49
82 12 22 25 42 29 45 5 3 29 39 53 79 25 41 59 97 77 125 18 29 40 66 49 82 9
17 41 67 70 112 30 45 54 85 54 89 0 3 14 23 30 44 17 21 30 43 30 49 0 12 33
63 58 89 6 7 12 17 12 22 0 5 6 15 13 22 6 7 21 31 32 53 10 22 31 58 46 80
39 60 61 96 83 135 10 19 33 58 51 85 18 28 43 69 56 91 27 47 106 174 131
213 10 14 23 37 30 51 7 14 24 41 38 60 36 50 50 73 56 93 7 19 38 23 57 7z"/>
<path d="M18653 19831 c0 -11 5 -18 9 -15 4 3 5 11 1 19 -7 21 -12 19 -10 -4z"/>
<path d="M16886 19783 c-6 -14 -5 -15 5 -6 7 7 10 15 7 18 -3 3 -9 -2 -12 -12z"/>
<path d="M16305 19711 c-3 -5 -2 -12 3 -15 5 -3 9 1 9 9 0 17 -3 19 -12 6z"/>
<path d="M17855 19709 c-4 -6 -5 -12 -2 -15 2 -3 7 2 10 11 7 17 1 20 -8 4z"/>
<path d="M16729 19673 c-13 -16 -12 -17 4 -4 16 13 21 21 13 21 -2 0 -10 -8
-17 -17z"/>
<path d="M16770 19686 c0 -2 7 -7 16 -10 8 -3 12 -2 9 4 -6 10 -25 14 -25 6z"/>
<path d="M19623 19630 c-12 -5 -24 -17 -26 -27 -7 -22 -11 -640 -9 -1090 2
-322 3 -334 23 -354 20 -20 26 -20 502 -17 530 5 538 5 658 69 148 79 219 212
206 389 -9 128 -61 226 -153 287 -30 20 -54 37 -54 39 0 2 17 20 38 38 144
130 147 411 7 552 -23 22 -66 53 -97 68 -101 49 -171 55 -643 55 -236 0 -440
-4 -452 -9z m685 -363 c23 -23 27 -36 27 -83 0 -50 -3 -58 -33 -85 -27 -25
-41 -29 -87 -29 l-55 0 0 116 0 116 60 -4 c49 -4 66 -9 88 -31z m44 -576 c23
-26 28 -40 28 -84 0 -90 -47 -127 -160 -127 l-60 0 0 126 0 127 82 -5 c76 -5
83 -7 110 -37z"/>
<path d="M16670 19620 c-8 -5 -10 -10 -5 -10 6 0 17 5 25 10 8 5 11 10 5 10
-5 0 -17 -5 -25 -10z"/>
<path d="M18425 19610 c3 -5 8 -10 11 -10 2 0 4 5 4 10 0 6 -5 10 -11 10 -5 0
-7 -4 -4 -10z"/>
<path d="M15965 19330 c-3 -6 1 -7 9 -4 18 7 21 14 7 14 -6 0 -13 -4 -16 -10z"/>
<path d="M16438 19223 c7 -3 16 -2 19 1 4 3 -2 6 -13 5 -11 0 -14 -3 -6 -6z"/>
<path d="M16170 19150 c-9 -6 -10 -10 -3 -10 6 0 15 5 18 10 8 12 4 12 -15 0z"/>
<path d="M16185 19130 c-3 -6 1 -7 9 -4 18 7 21 14 7 14 -6 0 -13 -4 -16 -10z"/>
<path d="M17160 19006 c0 -2 8 -10 18 -17 15 -13 16 -12 3 4 -13 16 -21 21
-21 13z"/>
<path d="M16705 18979 c-4 -6 -5 -12 -2 -15 2 -3 7 2 10 11 7 17 1 20 -8 4z"/>
<path d="M15820 18956 c0 -2 8 -10 18 -17 15 -13 16 -12 3 4 -13 16 -21 21
-21 13z"/>
<path d="M16664 18940 c0 -13 4 -16 10 -10 7 7 7 13 0 20 -6 6 -10 3 -10 -10z"/>
<path d="M15465 18899 c-4 -6 -5 -12 -2 -15 2 -3 7 2 10 11 7 17 1 20 -8 4z"/>
<path d="M16750 18896 c0 -2 8 -10 18 -17 15 -13 16 -12 3 4 -13 16 -21 21
-21 13z"/>
<path d="M15415 18861 c-3 -5 -2 -12 3 -15 5 -3 9 1 9 9 0 17 -3 19 -12 6z"/>
<path d="M15416 18822 c-3 -5 1 -9 9 -9 8 0 12 4 9 9 -3 4 -7 8 -9 8 -2 0 -6
-4 -9 -8z"/>
<path d="M17389 18743 c-13 -16 -12 -17 4 -4 16 13 21 21 13 21 -2 0 -10 -8
-17 -17z"/>
<path d="M17425 18719 c-4 -6 -4 -13 -1 -16 3 -4 6 -1 6 6 0 7 5 9 12 5 7 -4
8 -3 4 4 -9 15 -13 15 -21 1z"/>
<path d="M17426 18658 c3 -5 10 -6 15 -3 13 9 11 12 -6 12 -8 0 -12 -4 -9 -9z"/>
<path d="M15617 18583 c3 -7 6 -13 8 -13 2 0 5 6 8 13 3 8 -1 14 -8 14 -7 0
-11 -6 -8 -14z"/>
<path d="M17296 18572 c-2 -4 -1 -14 4 -22 7 -11 9 -9 7 8 -1 24 -3 26 -11 14z"/>
<path d="M17325 18550 c-3 -6 1 -7 9 -4 18 7 21 14 7 14 -6 0 -13 -4 -16 -10z"/>
<path d="M16336 18378 c3 -5 10 -6 15 -3 13 9 11 12 -6 12 -8 0 -12 -4 -9 -9z"/>
<path d="M15605 18221 c-3 -5 -2 -12 3 -15 5 -3 9 1 9 9 0 17 -3 19 -12 6z"/>
<path d="M16060 18111 c0 -6 4 -13 10 -16 6 -3 7 1 4 9 -7 18 -14 21 -14 7z"/>
<path d="M15035 17921 c-3 -5 -2 -12 3 -15 5 -3 9 1 9 9 0 17 -3 19 -12 6z"/>
<path d="M16610 17861 c-8 -6 -18 -7 -24 -4 -5 3 -6 1 -2 -5 5 -9 13 -9 27 -2
10 6 19 13 19 15 0 7 -3 6 -20 -4z"/>
<path d="M14385 17831 c-3 -5 -2 -12 3 -15 5 -3 9 1 9 9 0 17 -3 19 -12 6z"/>
<path d="M15775 17709 c-4 -6 -5 -12 -2 -15 2 -3 7 2 10 11 7 17 1 20 -8 4z"/>
<path d="M14439 17468 c-1 -2 -3 -13 -4 -26 -2 -17 1 -20 11 -11 7 6 10 17 7
25 -5 13 -11 18 -14 12z"/>
<path d="M13865 17371 c-3 -5 -2 -12 3 -15 5 -3 9 1 9 9 0 17 -3 19 -12 6z"/>
<path d="M15070 17376 c0 -2 8 -10 18 -17 15 -13 16 -12 3 4 -13 16 -21 21
-21 13z"/>
<path d="M14364 17350 c0 -13 4 -16 10 -10 7 7 7 13 0 20 -6 6 -10 3 -10 -10z"/>
<path d="M15725 17220 c-3 -6 1 -7 9 -4 18 7 21 14 7 14 -6 0 -13 -4 -16 -10z"/>
<path d="M15560 17086 c0 -2 8 -10 18 -17 15 -13 16 -12 3 4 -13 16 -21 21
-21 13z"/>
<path d="M14819 16983 c-13 -16 -12 -17 4 -4 9 7 17 15 17 17 0 8 -8 3 -21
-13z"/>
<path d="M15163 16935 c0 -8 4 -12 9 -9 5 3 6 10 3 15 -9 13 -12 11 -12 -6z"/>
<path d="M15549 16883 c-13 -16 -12 -17 4 -4 9 7 17 15 17 17 0 8 -8 3 -21
-13z"/>
<path d="M14805 16811 c-3 -5 -1 -12 5 -16 5 -3 10 -3 10 1 0 3 8 0 18 -7 14
-11 13 -10 -2 9 -22 25 -23 25 -31 13z"/>
<path d="M19598 16759 c-14 -6 -29 -18 -33 -27 -8 -22 -8 -1403 1 -1425 12
-32 50 -37 274 -37 213 0 265 6 282 33 4 7 8 256 8 555 l0 542 120 0 119 0 3
-545 c3 -507 4 -546 21 -562 16 -16 41 -18 267 -18 226 0 251 2 267 18 17 17
18 59 18 727 0 667 -1 710 -18 727 -17 17 -58 18 -660 20 -409 1 -652 -2 -669
-8z"/>
<path d="M14983 16348 c-15 -20 -25 -38 -20 -38 3 0 12 11 21 25 17 26 16 35
-1 13z"/>
<path d="M14763 16335 c0 -8 4 -12 9 -9 5 3 6 10 3 15 -9 13 -12 11 -12 -6z"/>
<path d="M14900 16266 c0 -3 9 -10 20 -16 11 -6 20 -8 20 -6 0 3 -9 10 -20 16
-11 6 -20 8 -20 6z"/>
<path d="M14615 16100 c10 -11 20 -20 23 -20 3 0 -3 9 -13 20 -10 11 -20 20
-23 20 -3 0 3 -9 13 -20z"/>
<path d="M13576 16022 c-3 -5 1 -9 9 -9 8 0 12 4 9 9 -3 4 -7 8 -9 8 -2 0 -6
-4 -9 -8z"/>
<path d="M14569 15913 c-13 -16 -12 -17 4 -4 9 7 17 15 17 17 0 8 -8 3 -21
-13z"/>
<path d="M12655 15870 c-3 -6 1 -7 9 -4 18 7 21 14 7 14 -6 0 -13 -4 -16 -10z"/>
<path d="M12695 15839 c-4 -6 -5 -12 -2 -15 2 -3 7 2 10 11 7 17 1 20 -8 4z"/>
<path d="M13080 15826 c0 -2 7 -7 16 -10 8 -3 12 -2 9 4 -6 10 -25 14 -25 6z"/>
<path d="M12750 15782 c0 -7 5 -12 11 -12 5 0 7 -6 3 -12 -4 -7 2 -4 14 6 23
20 31 36 9 17 -10 -8 -17 -7 -25 1 -9 9 -12 9 -12 0z"/>
<path d="M13185 15761 c-3 -5 -2 -12 3 -15 5 -3 9 1 9 9 0 17 -3 19 -12 6z"/>
<path d="M13360 15595 c0 -2 6 -8 13 -14 10 -8 14 -7 14 2 0 8 -6 14 -14 14
-7 0 -13 -1 -13 -2z"/>
<path d="M13096 15467 c3 -10 9 -15 12 -12 3 3 0 11 -7 18 -10 9 -11 8 -5 -6z"/>
<path d="M13026 15458 c3 -5 10 -6 15 -3 13 9 11 12 -6 12 -8 0 -12 -4 -9 -9z"/>
<path d="M13150 15380 c-9 -6 -10 -10 -3 -10 6 0 15 5 18 10 8 12 4 12 -15 0z"/>
<path d="M13724 15268 c-4 -5 -3 -12 0 -15 3 -4 6 -1 6 7 0 9 3 10 13 1 10 -8
14 -7 14 2 0 15 -25 18 -33 5z"/>
<path d="M13756 15132 c-3 -5 1 -9 9 -9 8 0 12 4 9 9 -3 4 -7 8 -9 8 -2 0 -6
-4 -9 -8z"/>
<path d="M13380 15110 c0 -5 5 -10 11 -10 5 0 7 5 4 10 -3 6 -8 10 -11 10 -2
0 -4 -4 -4 -10z"/>
<path d="M12595 15050 c-3 -6 1 -7 9 -4 18 7 21 14 7 14 -6 0 -13 -4 -16 -10z"/>
<path d="M13559 14953 c-13 -16 -12 -17 4 -4 9 7 17 15 17 17 0 8 -8 3 -21
-13z"/>
<path d="M20027 14899 c-247 -34 -415 -171 -484 -394 -16 -53 -18 -98 -18
-380 l0 -320 28 -79 c65 -184 193 -298 397 -353 94 -26 493 -26 594 0 102 26
188 71 257 135 152 140 188 283 176 701 -8 253 -14 289 -67 397 -68 138 -188
230 -359 276 -60 16 -115 21 -266 23 -104 2 -220 0 -258 -6z m282 -390 c20
-11 48 -36 61 -56 25 -36 25 -37 28 -311 3 -262 2 -276 -18 -318 -41 -84 -133
-118 -199 -72 -19 12 -44 36 -55 51 -20 27 -21 40 -21 326 l0 298 27 35 c29
38 79 67 117 68 13 0 40 -9 60 -21z"/>
<path d="M12750 14896 c0 -2 8 -10 18 -17 15 -13 16 -12 3 4 -13 16 -21 21
-21 13z"/>
<path d="M12720 14864 c0 -1 8 -8 17 -15 9 -8 14 -9 10 -2 -4 6 -1 13 5 16 7
3 3 4 -9 4 -13 -1 -23 -2 -23 -3z"/>
<path d="M12041 14833 c7 -12 15 -20 18 -17 3 2 -3 12 -13 22 -17 16 -18 16
-5 -5z"/>
<path d="M11225 14781 c-3 -5 -2 -12 3 -15 5 -3 9 1 9 9 0 17 -3 19 -12 6z"/>
<path d="M11256 14745 c4 -8 11 -15 16 -15 6 0 5 6 -2 15 -7 8 -14 15 -16 15
-2 0 -1 -7 2 -15z"/>
<path d="M12135 14740 c10 -11 20 -20 23 -20 3 0 -3 9 -13 20 -10 11 -20 20
-23 20 -3 0 3 -9 13 -20z"/>
<path d="M11455 14509 c-4 -6 -5 -12 -2 -15 2 -3 7 2 10 11 7 17 1 20 -8 4z"/>
<path d="M12053 14273 c4 -3 1 -13 -6 -22 -11 -14 -10 -14 5 -2 16 12 16 31 1
31 -4 0 -3 -3 0 -7z"/>
<path d="M11735 14240 c-4 -6 -11 -7 -17 -4 -7 4 -8 2 -4 -5 6 -8 12 -9 20 -2
7 6 17 7 21 3 5 -4 5 -1 1 6 -9 15 -13 15 -21 2z"/>
<path d="M11326 14192 c-3 -5 1 -9 9 -9 8 0 12 4 9 9 -3 4 -7 8 -9 8 -2 0 -6
-4 -9 -8z"/>
<path d="M11786 14128 c3 -5 10 -6 15 -3 13 9 11 12 -6 12 -8 0 -12 -4 -9 -9z"/>
<path d="M11900 14076 c0 -2 8 -10 18 -17 15 -13 16 -12 3 4 -13 16 -21 21
-21 13z"/>
<path d="M4025 14061 l-60 -6 -3 -382 c-2 -378 -2 -382 19 -393 14 -8 104 -10
287 -8 295 4 313 7 381 71 44 42 61 84 61 154 0 70 -30 136 -75 166 l-33 21
29 33 c36 41 53 104 45 166 -11 99 -75 159 -186 177 -67 10 -360 11 -465 1z
m323 -199 c28 -36 -2 -102 -48 -102 -18 0 -20 7 -20 65 l0 65 28 -6 c15 -4 33
-13 40 -22z m16 -298 c9 -8 16 -31 16 -49 0 -39 -29 -65 -72 -65 -28 0 -28 1
-28 65 l0 65 34 0 c19 0 42 -7 50 -16z"/>
<path d="M11530 13936 c0 -2 8 -10 18 -17 15 -13 16 -12 3 4 -13 16 -21 21
-21 13z"/>
<path d="M12010 13926 c0 -2 8 -10 18 -17 15 -13 16 -12 3 4 -13 16 -21 21
-21 13z"/>
<path d="M10905 13730 c-3 -6 1 -7 9 -4 18 7 21 14 7 14 -6 0 -13 -4 -16 -10z"/>
<path d="M11709 13703 c-13 -16 -12 -17 4 -4 16 13 21 21 13 21 -2 0 -10 -8
-17 -17z"/>
<path d="M12159 13613 c-13 -16 -12 -17 4 -4 9 7 17 15 17 17 0 8 -8 3 -21
-13z"/>
<path d="M10649 13558 c-6 -20 -6 -39 0 -42 4 -3 7 6 7 20 0 20 -4 32 -7 22z"/>
<path d="M10783 13515 c0 -8 4 -12 9 -9 5 3 6 10 3 15 -9 13 -12 11 -12 -6z"/>
<path d="M12006 13468 c3 -5 10 -6 15 -3 13 9 11 12 -6 12 -8 0 -12 -4 -9 -9z"/>
<path d="M10435 13340 c3 -5 8 -10 11 -10 2 0 4 5 4 10 0 6 -5 10 -11 10 -5 0
-7 -4 -4 -10z"/>
<path d="M10980 13266 c0 -2 8 -10 18 -17 15 -13 16 -12 3 4 -13 16 -21 21
-21 13z"/>
<path d="M19600 12969 c-13 -5 -28 -15 -32 -22 -4 -7 -8 -76 -8 -154 0 -194
-14 -183 220 -183 l180 0 0 -540 0 -541 25 -25 25 -25 246 3 c230 3 247 4 260
22 12 17 14 110 14 562 l0 543 185 3 c161 3 187 5 202 21 16 15 18 37 18 162
0 125 -2 147 -18 162 -17 17 -58 18 -655 20 -408 1 -646 -2 -662 -8z"/>
<path d="M11320 12936 c0 -2 7 -7 16 -10 8 -3 12 -2 9 4 -6 10 -25 14 -25 6z"/>
<path d="M10320 12546 c7 -7 13 -7 20 0 6 6 3 10 -10 10 -13 0 -16 -4 -10 -10z"/>
<path d="M4040 12531 l-65 -6 -3 -379 c-1 -271 1 -383 9 -392 9 -11 45 -14
150 -14 166 0 159 -6 159 138 l0 100 118 4 c104 3 123 7 170 31 94 49 140 145
130 275 -8 109 -80 204 -176 232 -43 13 -397 21 -492 11z m318 -211 c49 -46
22 -140 -40 -140 l-28 0 0 80 c0 77 1 80 23 80 13 0 33 -9 45 -20z"/>
<path d="M8845 12349 c-4 -6 -5 -12 -2 -15 2 -3 7 2 10 11 7 17 1 20 -8 4z"/>
<path d="M8805 12341 c-3 -5 -2 -12 3 -15 5 -3 9 1 9 9 0 17 -3 19 -12 6z"/>
<path d="M9789 12243 c-13 -16 -12 -17 4 -4 9 7 17 15 17 17 0 8 -8 3 -21 -13z"/>
<path d="M8990 12150 c-9 -6 -10 -10 -3 -10 6 0 15 5 18 10 8 12 4 12 -15 0z"/>
<path d="M9723 11945 c0 -8 4 -12 9 -9 5 3 6 10 3 15 -9 13 -12 11 -12 -6z"/>
<path d="M9740 11920 c-9 -6 -10 -10 -3 -10 6 0 15 5 18 10 8 12 4 12 -15 0z"/>
<path d="M10230 11786 c0 -2 8 -10 18 -17 15 -13 16 -12 3 4 -13 16 -21 21
-21 13z"/>
<path d="M10211 11753 c-1 -17 16 -25 25 -12 4 7 3 9 -4 5 -5 -3 -13 0 -15 6
-4 9 -6 10 -6 1z"/>
<path d="M4070 11541 l-65 -6 -3 -380 c-2 -348 -1 -381 15 -392 24 -18 623
-19 641 -1 7 7 12 43 12 90 0 75 -1 79 -26 88 -14 6 -93 10 -175 10 l-149 0 0
50 0 50 121 0 c66 0 129 5 140 10 16 9 19 22 19 88 0 47 -5 83 -12 90 -8 8
-54 12 -140 12 l-128 0 0 50 0 50 159 0 c124 0 161 3 170 14 8 9 11 43 9 93
l-3 78 -65 6 c-80 8 -431 8 -520 0z"/>
<path d="M9965 11510 c-3 -6 1 -7 9 -4 18 7 21 14 7 14 -6 0 -13 -4 -16 -10z"/>
<path d="M20031 11110 c-273 -38 -450 -198 -497 -449 -23 -122 -16 -620 10
-701 64 -196 196 -320 401 -376 91 -25 421 -31 542 -10 254 44 407 176 471
408 25 92 24 610 -1 711 -51 206 -189 341 -404 398 -62 17 -116 22 -268 24
-104 2 -219 0 -254 -5z m278 -391 c20 -11 48 -36 61 -56 25 -36 25 -37 28
-311 3 -262 2 -276 -18 -318 -41 -84 -133 -118 -199 -72 -77 52 -76 47 -79
363 -3 269 -2 286 17 324 42 82 119 110 190 70z"/>
<path d="M4161 10564 c-66 -18 -110 -44 -150 -90 -61 -69 -65 -89 -66 -305 l0
-195 30 -59 c36 -70 94 -118 169 -140 79 -23 305 -24 377 -2 113 34 230 183
177 224 -7 6 -48 23 -90 38 -59 21 -81 25 -91 16 -9 -7 -31 -9 -59 -5 -40 6
-47 4 -52 -14 -22 -67 -84 -93 -122 -51 -17 18 -19 40 -22 176 -4 168 2 192
54 215 21 10 28 8 54 -17 17 -16 30 -34 30 -41 0 -6 7 -17 16 -25 12 -10 22
-10 49 0 26 9 38 9 53 0 15 -10 34 -7 101 16 45 15 85 34 88 42 12 30 -19 96
-67 143 -68 69 -141 90 -304 89 -72 0 -143 -6 -175 -15z"/>
<path d="M3983 9573 c-48 -3 -63 -8 -63 -19 0 -8 48 -117 106 -242 154 -331
143 -281 89 -403 -25 -56 -43 -109 -41 -116 4 -10 41 -13 155 -13 127 0 152 3
169 18 19 16 322 730 322 758 0 10 -13 14 -42 15 -24 0 -52 2 -63 4 -11 3 -64
2 -119 -2 l-99 -6 -23 -56 c-14 -31 -30 -69 -37 -84 l-13 -29 -33 81 c-19 45
-40 82 -50 85 -27 8 -191 13 -258 9z"/>
<path d="M19630 9179 c-13 -5 -28 -15 -32 -22 -4 -7 -8 -330 -8 -718 0 -593 2
-708 14 -725 14 -18 29 -19 270 -19 196 0 258 3 268 13 10 10 14 74 18 250 l5
237 115 -230 c81 -163 123 -236 143 -250 26 -19 47 -20 283 -23 221 -3 258 -1
280 12 29 20 31 49 6 96 -254 485 -311 588 -354 635 l-47 51 176 280 c221 351
231 368 217 391 -17 28 -54 32 -309 30 -226 -2 -245 -3 -270 -22 -15 -11 -75
-95 -133 -187 l-107 -168 -5 170 c-4 145 -8 172 -23 187 -16 16 -42 18 -250
20 -142 2 -242 -1 -257 -8z"/>
<path d="M4040 8591 l-65 -6 -3 -380 c-2 -348 -1 -381 15 -392 11 -9 59 -13
150 -13 159 0 153 -5 153 138 l0 100 118 4 c103 3 123 7 169 31 88 46 133 127
133 241 0 85 -24 151 -75 201 -65 66 -107 76 -335 80 -107 1 -224 0 -260 -4z
m318 -211 c49 -46 22 -140 -40 -140 l-28 0 0 80 c0 77 1 80 23 80 13 0 33 -9
45 -20z"/>
<path d="M4161 7604 c-66 -18 -110 -44 -150 -90 -61 -69 -65 -89 -66 -305 l0
-195 30 -59 c36 -70 94 -118 169 -140 79 -23 305 -24 377 -2 113 34 230 183
177 224 -7 6 -48 23 -90 38 -59 21 -81 25 -91 16 -9 -7 -31 -9 -59 -5 -40 6
-47 4 -52 -14 -22 -67 -84 -93 -122 -51 -17 18 -19 40 -22 180 l-3 159 30 30
c16 17 36 30 44 30 18 0 67 -48 67 -65 0 -27 29 -39 65 -26 26 9 38 9 53 0 15
-10 34 -7 101 16 45 15 85 34 88 42 12 30 -19 96 -67 143 -68 69 -141 90 -304
89 -72 0 -143 -6 -175 -15z"/>
<path d="M19700 7279 c-13 -5 -28 -15 -32 -22 -4 -7 -8 -330 -8 -718 0 -593 2
-708 14 -725 14 -18 32 -19 600 -19 549 0 586 1 603 18 16 15 18 37 18 162 0
125 -2 147 -18 162 -16 16 -46 18 -332 21 l-315 3 0 99 0 99 250 3 c223 3 251
5 267 21 16 15 18 37 18 162 0 125 -2 147 -18 162 -16 16 -43 18 -267 21
l-250 3 0 94 0 95 300 0 301 0 24 25 c24 23 25 29 25 158 0 118 -2 138 -19
158 l-19 24 -559 2 c-358 1 -567 -1 -583 -8z"/>
<path d="M4070 6611 l-65 -6 -3 -379 c-1 -271 1 -383 9 -392 16 -19 628 -21
647 -2 7 7 12 43 12 90 0 75 -1 79 -26 88 -14 6 -93 10 -175 10 l-149 0 0 50
0 50 121 0 c66 0 129 5 140 10 16 9 19 22 19 88 0 47 -5 83 -12 90 -8 8 -54
12 -140 12 l-128 0 0 50 0 50 159 0 c124 0 161 3 170 14 8 9 11 43 9 93 l-3
78 -55 6 c-70 8 -444 8 -530 0z"/>
</g>
</svg>
